<svg width="196" height="116" viewBox="0 0 196 116" fill="none" xmlns="http://www.w3.org/2000/svg">
<path d="M71.0941 63.5095C57.6432 62.0255 36.4081 75.6965 27.4719 82.7174C23.5496 85.6436 34.6924 93.8907 39.175 88.9834C43.6576 84.0761 75.9437 84.2411 79.8836 81.3901C83.8235 78.5391 87.9077 65.3645 71.0941 63.5095Z" fill="#262626"/>
<path fill-rule="evenodd" clip-rule="evenodd" d="M158.311 85.3338C161.411 85.8456 165.043 87.3799 168.236 89.9196C173.039 93.7401 175.455 98.727 175.286 102.151C175.52 103.893 175.071 105.724 173.891 107.208C171.59 110.1 167.38 110.58 164.487 108.28C163.367 107.389 162.609 106.212 162.233 104.936C160.385 105.288 158.399 104.863 156.811 103.6C155.085 102.227 154.218 100.175 154.288 98.1288C153.481 97.884 152.705 97.4849 152.003 96.9267C149.065 94.5898 148.548 90.3503 150.849 87.4575C152.66 85.1806 155.676 84.4166 158.311 85.3338Z" fill="#262626"/>
<path fill-rule="evenodd" clip-rule="evenodd" d="M78.3528 0.230263L94.8004 14.0013C100.665 11.7302 107.296 10.4507 114.318 10.4507C121.339 10.4507 127.97 11.7302 133.835 14.0013L150.278 0.234023C150.871 -0.262644 151.779 0.0895085 151.882 0.856272L156.717 36.8014C157.319 39.0052 157.635 41.2894 157.635 43.6301C157.635 61.9547 138.241 66.8096 114.318 66.8096C90.394 66.8096 71 61.9547 71 43.6301C71 43.3183 71.0056 43.0075 71.0168 42.6977L71 42.7086L71.0228 42.5423C71.0918 40.9021 71.3162 39.2921 71.6851 37.7204L76.749 0.849796C76.8541 0.0845445 77.7606 -0.265613 78.3528 0.230263Z" fill="#262626"/>
<circle cx="135.841" cy="38.3291" r="9.4453" fill="#FFC166"/>
<circle cx="135.842" cy="38.329" r="7.77145" fill="#262626"/>
<ellipse cx="130.229" cy="33.8295" rx="1.67943" ry="1.67943" fill="white"/>
<circle cx="93.4453" cy="38.3291" r="9.4453" fill="#FFC166"/>
<circle cx="93.4455" cy="38.329" r="7.77145" fill="#262626"/>
<ellipse cx="87.8327" cy="33.8295" rx="1.67943" ry="1.67943" fill="white"/>
<path d="M80.8593 37.8695C75.4435 35.2558 62.5449 30.1779 37.6866 30.7753" stroke="#262626" stroke-width="0.999062" stroke-linecap="round"/>
<path d="M147.824 37.8695C153.24 35.2558 166.138 30.1779 190.997 30.7753" stroke="#262626" stroke-width="0.999062" stroke-linecap="round"/>
<path d="M76.395 43.2267C71.9255 43.3861 58.4237 41.787 42.4674 47.6908" stroke="#262626" stroke-width="0.999062" stroke-linecap="round"/>
<path d="M152.288 43.2267C156.758 43.3861 170.259 41.787 186.216 47.6908" stroke="#262626" stroke-width="0.999062" stroke-linecap="round"/>
<path d="M74.5527 39.4824C68.1011 38.1 51.5114 36.2567 34 39.4825" stroke="#262626" stroke-width="0.921652" stroke-linecap="round"/>
<path d="M154.13 39.4824C160.582 38.1 177.172 36.2567 194.683 39.4825" stroke="#262626" stroke-width="0.921652" stroke-linecap="round"/>
<path d="M115 42V51" stroke="#404040" stroke-linecap="round"/>
<path d="M121 51L109 51" stroke="#404040" stroke-linecap="round"/>
<path d="M114.905 39.0218C113.374 39.0218 111.137 39.3305 109.798 39.9705C109.325 40.1968 109.323 40.7959 109.71 41.1505L114.377 45.4291C114.73 45.7521 115.27 45.7521 115.623 45.4291L120.283 41.1577C120.672 40.8004 120.667 40.197 120.188 39.9728C118.841 39.3426 116.583 39.0218 114.905 39.0218Z" fill="#F25C5C"/>
<rect x="63.3556" y="102.667" width="101.289" height="2.33333" fill="#262626"/>
<path fill-rule="evenodd" clip-rule="evenodd" d="M61 104.833C61 104.281 61.4477 103.833 62 103.833H166C166.552 103.833 167 104.281 167 104.833V106C167 109.314 164.314 112 161 112H67C63.6863 112 61 109.314 61 106V104.833Z" fill="#B0B0B0"/>
<path fill-rule="evenodd" clip-rule="evenodd" d="M61 45C61 43.3431 62.3431 42 64 42H164C165.657 42 167 43.3431 167 45V99.6667C167 101.324 165.657 102.667 164 102.667H64C62.3431 102.667 61 101.324 61 99.6667V45Z" fill="#B0B0B0"/>
<path fill-rule="evenodd" clip-rule="evenodd" d="M63.3556 107.333H65.7111V108.462H63.3556V107.333Z" fill="#262626"/>
<path fill-rule="evenodd" clip-rule="evenodd" d="M66.8889 107.333H69.2445V108.462H66.8889V107.333Z" fill="#262626"/>
<path fill-rule="evenodd" clip-rule="evenodd" d="M96.3334 78.0801L98.6011 72.7706H100.78L98.5152 78.0801H96.3334Z" fill="black" fill-opacity="0.75"/>
<path fill-rule="evenodd" clip-rule="evenodd" d="M124.317 78.0801L126.556 72.7706H127.744L125.505 78.0801H124.317Z" fill="black" fill-opacity="0.75"/>
<path fill-rule="evenodd" clip-rule="evenodd" d="M128.72 78.0801L130.958 72.7706H131.589L129.35 78.0801H128.72Z" fill="black" fill-opacity="0.75"/>
<path fill-rule="evenodd" clip-rule="evenodd" d="M122.257 72.7706H120.284C120.284 72.7706 120.149 72.7706 120.1 72.8842L119.009 76.0452L117.918 72.8842C117.87 72.7706 117.734 72.7706 117.734 72.7706H113.941C113.859 72.7706 113.79 72.8354 113.79 72.9126V73.9861C113.79 73.1345 112.832 72.7706 112.272 72.7706C111.016 72.7706 110.175 73.5532 109.913 74.743C109.899 73.9537 109.829 73.6708 109.605 73.3812C109.502 73.2393 109.352 73.12 109.19 73.0213C108.855 72.8359 108.555 72.7706 107.909 72.7706H107.151C107.151 72.7706 107.014 72.7706 106.966 72.8842L106.276 74.5012V72.9126C106.276 72.8354 106.208 72.7706 106.126 72.7706H104.372C104.372 72.7706 104.236 72.7706 104.187 72.8842L103.47 74.5655C103.47 74.5655 103.399 74.7336 103.562 74.7336H104.236V77.9376C104.236 78.0171 104.303 78.0801 104.387 78.0801H106.126C106.208 78.0801 106.276 78.0171 106.276 77.9376V74.7336H106.954C107.343 74.7336 107.425 74.7437 107.577 74.8104C107.668 74.843 107.75 74.9088 107.795 74.9848C107.886 75.1481 107.909 75.3441 107.909 75.9223V77.9376C107.909 78.0171 107.977 78.0801 108.06 78.0801H109.727C109.727 78.0801 109.915 78.0801 109.99 77.9041L110.359 77.0405C110.85 77.6913 111.658 78.0801 112.663 78.0801H112.882C112.882 78.0801 113.072 78.0801 113.147 77.9041L113.79 76.3971V77.9376C113.79 78.0171 113.859 78.0801 113.941 78.0801H115.642C115.642 78.0801 115.83 78.0801 115.906 77.9041C115.906 77.9041 116.586 76.306 116.589 76.294H116.59C116.616 76.161 116.438 76.161 116.438 76.161H115.831V73.4188L117.741 77.9041C117.816 78.0801 118.004 78.0801 118.004 78.0801H120.014C120.014 78.0801 120.203 78.0801 120.278 77.9041L122.396 72.9426C122.469 72.7706 122.257 72.7706 122.257 72.7706V72.7706ZM113.79 76.161H112.647C112.193 76.161 111.823 75.8126 111.823 75.3818C111.823 74.9517 112.193 74.6011 112.647 74.6011H112.967C113.421 74.6011 113.79 74.9517 113.79 75.3818V76.161ZM112.793 83.9928C106.667 83.9928 101.699 79.2936 101.699 73.4971C101.699 67.7 106.667 63 112.793 63C118.921 63 123.889 67.7 123.889 73.4971C123.889 79.2936 118.921 83.9928 112.793 83.9928Z" fill="black" fill-opacity="0.75"/>
<path d="M21.2093 86.2312C26.2209 88.3206 28.6403 91.2325 27.718 95.5196C29.1016 97.5959 30.5339 99.6282 31.402 96.0174C32.4606 91.6141 30.8171 87.243 24.2931 84.2294C16.6038 80.6776 7.67023 88.1994 4.68528 87.474C1.70032 86.7485 2.08196 82.9282 1.66425 83.1001C1.24655 83.272 0.675067 87.8606 5.15297 89.0531C9.74829 90.2769 14.5355 83.4487 21.2093 86.2312Z" fill="#FFB8B8"/>
<path d="M46.6836 92.3069C46.6836 100.213 40.3917 116 32.6303 116C24.8688 116 18.5769 100.213 18.5769 92.3069C18.5769 84.401 24.8688 77.9921 32.6303 77.9921C40.3917 77.9921 46.6836 84.401 46.6836 92.3069Z" fill="#CFCFCF"/>
<circle cx="28.0776" cy="107.057" r="1.59697" fill="black"/>
<ellipse cx="27.52" cy="106.897" rx="0.319394" ry="0.479092" fill="white"/>
<circle cx="37.0207" cy="107.057" r="1.59697" fill="black"/>
<ellipse cx="36.4631" cy="106.897" rx="0.319394" ry="0.479092" fill="white"/>
<path d="M32.6302 113.764L32.6302 115.361" stroke="black" stroke-opacity="0.1" stroke-width="0.319394" stroke-linecap="round"/>
<path d="M32.6001 112.167C32.3105 112.167 31.9418 112.202 31.6004 112.273C31.0816 112.381 31.0388 112.94 31.4288 113.298L31.9991 113.823C32.356 114.151 32.9048 114.151 33.2616 113.823L33.824 113.305C34.217 112.944 34.1708 112.382 33.6478 112.275C33.2995 112.203 32.9173 112.167 32.6001 112.167Z" fill="#F25C5C"/>
<rect x="27.2006" y="110.57" width="2.87455" height="2.23576" rx="1.11788" fill="#E5E5E5"/>
<rect x="34.866" y="110.57" width="2.87455" height="2.23576" rx="1.11788" fill="#E5E5E5"/>
<path d="M28.4782 111.848L20.9724 113.605" stroke="#595959" stroke-width="0.159697" stroke-linecap="round"/>
<path d="M36.463 111.848L43.9688 113.605" stroke="#595959" stroke-width="0.159697" stroke-linecap="round"/>
<path d="M27.7582 111.369L21.8494 110.89" stroke="#595959" stroke-width="0.159697" stroke-linecap="round"/>
<path d="M37.183 111.369L43.0918 110.89" stroke="#595959" stroke-width="0.159697" stroke-linecap="round"/>
<path d="M28.3185 112.487L24.2449 115.361" stroke="#595959" stroke-width="0.159697" stroke-linecap="round"/>
<path d="M36.6227 112.487L40.6963 115.361" stroke="#595959" stroke-width="0.159697" stroke-linecap="round"/>
<path fill-rule="evenodd" clip-rule="evenodd" d="M46.6748 82.8368C44.3003 80.7801 40.7989 78.9672 36.8049 78.1345C30.7964 76.8818 25.417 78.211 22.8919 80.5292C21.4028 81.4627 20.2812 82.9779 19.8942 84.8343C19.1398 88.4527 21.4615 91.9976 25.08 92.7521C26.4809 93.0441 27.8708 92.8751 29.092 92.3483C30.0024 93.9953 31.5983 95.2509 33.5851 95.6651C35.7437 96.1152 37.8761 95.4705 39.4056 94.1088C40.1094 94.5728 40.9126 94.9149 41.7904 95.0979C45.4655 95.8641 49.0564 93.5519 49.8108 89.9335C50.4046 87.0855 49.0643 84.2773 46.6748 82.8368Z" fill="#262626"/>
<circle cx="22.1689" cy="97.6348" r="6.86698" fill="#CFCFCF"/>
<path d="M19.2752 102.264C22.9893 104.209 21.3602 101.171 23.0091 98.593C24.4464 94.92 27.3195 95.7948 25.0852 93.323C22.6897 91.4066 19.3786 92.1196 17.7297 94.6979C16.0808 97.2761 16.7728 100.664 19.2752 102.264Z" fill="#FFB8B8"/>
<circle cx="42.61" cy="97.6348" r="6.86698" fill="#CFCFCF"/>
<path d="M45.6266 102.264C41.9125 104.209 43.5416 101.171 41.8927 98.593C40.4555 94.92 37.5824 95.7948 39.8167 93.323C42.2121 91.4066 45.5232 92.1196 47.1721 94.6979C48.821 97.2761 48.1291 100.664 45.6266 102.264Z" fill="#FFB8B8"/>
</svg>
