<svg width="191" height="230" viewBox="0 0 191 230" fill="none" xmlns="http://www.w3.org/2000/svg">
<circle cx="108" cy="175" r="47" fill="#FFB8B8"/>
<circle cx="108" cy="175" r="48" stroke="#FFA6A6" stroke-width="2"/>
<path d="M84 140.5C78 145.5 64 163.5 68.5 190.5C70.3689 201.713 71.2149 216.615 51.5 219.5C31 222.5 28.5 200 1 216" stroke="#FFA6A6" stroke-width="2" stroke-linecap="round"/>
<path d="M111.5 222C104.833 215.333 90.2999 190.7 103.5 165.5C116.7 140.3 134.833 140.5 141.5 141.5" stroke="#FFA6A6" stroke-width="2" stroke-linecap="round"/>
<path d="M111 221.5C119.76 220.549 145.405 209.581 150.5 183.5C154.993 160.5 140.949 142.175 135.5 139" stroke="#FFA6A6" stroke-width="2" stroke-linecap="round"/>
<path d="M108 217C116.668 216.164 140.019 207.273 144.764 181.629C149.508 155.985 136.607 146.45 131.172 143.257" stroke="#FFA6A6" stroke-width="2" stroke-linecap="round"/>
<path d="M104.5 211C112.863 210.544 136.407 202.71 140 178.5C143.593 154.29 129.849 146.004 124.46 142.754" stroke="#FFA6A6" stroke-width="2" stroke-linecap="round"/>
<path d="M101.5 204C110.5 202.5 131.88 196.996 134.5 174C137.12 151.004 122.758 143.338 117.407 140.04" stroke="#FFA6A6" stroke-width="2" stroke-linecap="round"/>
<path d="M99.4999 195.5C106.482 195.364 126.96 189.5 129 172C131.312 152.161 118.799 144.021 114.198 141.19" stroke="#FFA6A6" stroke-width="2" stroke-linecap="round"/>
<path d="M98.5 188C104.253 187.856 120.505 182.895 122.5 166.5C124.495 150.105 114.278 143.317 110.5 141" stroke="#FFA6A6" stroke-width="2" stroke-linecap="round"/>
<path d="M100 178C110.5 178 121.301 166.312 114.226 151.823" stroke="#FFA6A6" stroke-width="2" stroke-linecap="round"/>
<path d="M101.909 170.028C104.546 170.728 114.142 166.355 109.576 157" stroke="#FFA6A6" stroke-width="2" stroke-linecap="round"/>
<path d="M105.5 222.5C98.8333 215.833 83.8 191.2 97 166C110.2 140.8 126 137 139.5 139" stroke="#FFA6A6" stroke-width="2" stroke-linecap="round"/>
<path d="M97.4999 221.5C90.8333 214.833 77.2999 188.2 90.4999 163C103.7 137.8 122.135 139.362 128.802 140.362" stroke="#FFA6A6" stroke-width="2" stroke-linecap="round"/>
<path d="M90.0001 219.5C83.3334 212.833 69.3 186.2 82.5 161C95.7 135.8 114.136 137.362 120.802 138.362" stroke="#FFA6A6" stroke-width="2" stroke-linecap="round"/>
<path d="M81.5 215C74.8333 208.333 63.3 181.7 76.5 156.5C89.7 131.3 106.136 133.362 112.802 134.362" stroke="#FFA6A6" stroke-width="2" stroke-linecap="round"/>
<path d="M74.5 209.5C67.8333 202.833 57.3 178.7 70.5 153.5C83.7 128.3 100.136 128.362 106.802 129.362" stroke="#FFA6A6" stroke-width="2" stroke-linecap="round"/>
<path fill-rule="evenodd" clip-rule="evenodd" d="M166.658 69.0518C162.816 69.5448 159.633 72.0538 158.844 76.1193C158.464 78.0798 158.858 79.4084 160.392 81.2545C162.159 83.3802 164.692 85.2909 168.334 88.0376C168.785 88.3779 169.253 88.731 169.739 89.0989C173.649 92.0601 178.703 96.0074 182.185 101.371C185.969 107.2 187.677 114.299 185.801 122.826C183.949 131.247 179.255 134.789 173 138.5C158.156 147.306 140.954 138.397 126 137.5L127.009 126.5C141 129.985 167.926 134.783 170.739 122C171.613 118.027 169.295 112.737 167.926 110.629C166.256 108.055 163.488 105.69 159.475 102.651C159.048 102.328 158.598 101.991 158.131 101.641C154.75 99.1106 150.456 95.8966 147.318 92.1204C143.294 87.279 140.596 80.9201 142.156 72.8807C144.569 60.4462 154.636 53.4551 164.494 52.1901C174.254 50.9375 185.892 55.2057 190.034 67.1914C191.567 71.6283 189.213 76.4682 184.776 78.0016C180.339 79.535 175.5 77.1812 173.966 72.7442C173.108 70.2621 170.597 68.5463 166.658 69.0518Z" fill="#262626"/>
<path d="M146 123.648C146 149.873 128.539 144.969 107 144.969C85.4609 144.969 68 149.873 68 123.648C68 97.4229 85.4609 53 107 53C128.539 53 146 97.4229 146 123.648Z" fill="#262626"/>
<path fill-rule="evenodd" clip-rule="evenodd" d="M72.3528 0.230263L88.8004 14.0013C94.6655 11.7302 101.296 10.4507 108.318 10.4507C115.339 10.4507 121.97 11.7302 127.835 14.0013L144.278 0.234023C144.871 -0.262644 145.779 0.0895085 145.882 0.856272L150.717 36.8014C151.319 39.0052 151.635 41.2894 151.635 43.6301C151.635 61.9547 132.241 66.8096 108.318 66.8096C84.394 66.8096 65 61.9547 65 43.6301C65 43.3183 65.0056 43.0075 65.0168 42.6977L65 42.7086L65.0228 42.5423C65.0918 40.9021 65.3162 39.2921 65.6851 37.7204L70.749 0.849796C70.8541 0.0845445 71.7606 -0.265613 72.3528 0.230263Z" fill="#262626"/>
<circle cx="129.841" cy="38.3291" r="9.4453" fill="#FFC166"/>
<circle cx="129.842" cy="38.329" r="7.77145" fill="#262626"/>
<ellipse cx="124.229" cy="33.8295" rx="1.67943" ry="1.67943" fill="white"/>
<circle cx="87.4453" cy="38.3291" r="9.4453" fill="#FFC166"/>
<circle cx="87.4455" cy="38.329" r="7.77145" fill="#262626"/>
<ellipse cx="81.8327" cy="33.8295" rx="1.67943" ry="1.67943" fill="white"/>
<path d="M74.8593 37.8695C69.4435 35.2558 56.5449 30.1779 31.6866 30.7753" stroke="#262626" stroke-width="0.999062" stroke-linecap="round"/>
<path d="M141.824 37.8695C147.24 35.2558 160.138 30.1779 184.997 30.7753" stroke="#262626" stroke-width="0.999062" stroke-linecap="round"/>
<path d="M70.395 43.2267C65.9255 43.3861 52.4237 41.787 36.4674 47.6908" stroke="#262626" stroke-width="0.999062" stroke-linecap="round"/>
<path d="M146.288 43.2267C150.758 43.3861 164.259 41.787 180.216 47.6908" stroke="#262626" stroke-width="0.999062" stroke-linecap="round"/>
<path d="M68.5527 39.4824C62.1011 38.1 45.5114 36.2567 28 39.4825" stroke="#262626" stroke-width="0.921652" stroke-linecap="round"/>
<path d="M148.13 39.4824C154.582 38.1 171.172 36.2567 188.683 39.4825" stroke="#262626" stroke-width="0.921652" stroke-linecap="round"/>
<path d="M109 42V51" stroke="#404040" stroke-linecap="round"/>
<path d="M115 51L103 51" stroke="#404040" stroke-linecap="round"/>
<path d="M108.905 39.0218C107.374 39.0218 105.137 39.3305 103.798 39.9705C103.325 40.1968 103.323 40.7959 103.71 41.1505L108.377 45.4291C108.73 45.7521 109.27 45.7521 109.623 45.4291L114.283 41.1577C114.672 40.8004 114.667 40.197 114.188 39.9728C112.841 39.3426 110.583 39.0218 108.905 39.0218Z" fill="#F25C5C"/>
<path fill-rule="evenodd" clip-rule="evenodd" d="M118.72 139.118C121.094 137.586 124.441 136.414 128.103 136.177C133.612 135.82 138.235 137.683 140.19 140.066C141.399 141.086 142.206 142.577 142.316 144.279C142.531 147.596 140.016 150.46 136.698 150.675C135.414 150.758 134.197 150.432 133.176 149.809C132.158 151.16 130.578 152.077 128.756 152.195C126.777 152.323 124.96 151.48 123.769 150.074C123.084 150.398 122.326 150.601 121.521 150.653C118.151 150.872 115.245 148.359 115.031 145.041C114.861 142.43 116.41 140.099 118.72 139.118Z" fill="#262626"/>
<path fill-rule="evenodd" clip-rule="evenodd" d="M96.5496 137.749C94.1049 136.332 90.7056 135.321 87.0366 135.259C81.5168 135.166 76.9884 137.247 75.1485 139.721C73.9903 140.797 73.255 142.325 73.2262 144.031C73.1699 147.355 75.8191 150.095 79.1432 150.151C80.4301 150.173 81.6296 149.789 82.6196 149.118C83.7017 150.419 85.3235 151.259 87.1487 151.29C89.1317 151.324 90.9069 150.395 92.0285 148.934C92.7286 149.225 93.4959 149.392 94.3022 149.405C97.6784 149.462 100.461 146.814 100.517 143.49C100.561 140.874 98.9037 138.619 96.5496 137.749Z" fill="#262626"/>
</svg>
