<svg width="245" height="299" viewBox="0 0 245 299" fill="none" xmlns="http://www.w3.org/2000/svg">
<path d="M167.971 196.258C167.971 221.347 167.971 263.229 122.543 263.229C77.1145 263.229 77.1145 221.347 77.1145 196.258C77.1145 171.169 97.4534 150.83 122.543 150.83C147.632 150.83 167.971 171.169 167.971 196.258Z" fill="#262626"/>
<path d="M122.259 151.064C90.0377 151.064 39.3642 180.881 18.0551 195.79L29.0609 214.055C96.2665 225.295 119.215 195.79 119.215 195.79C119.215 195.79 124.366 167.3 122.259 151.064Z" fill="#262626"/>
<circle cx="12.6449" cy="12.6449" r="12.6449" transform="matrix(-0.866025 0.5 0.5 0.866025 23.0497 190.716)" fill="#262626"/>
<circle cx="5.15165" cy="5.15165" r="5.15165" transform="matrix(-0.866025 0.5 0.5 0.866025 8.92274 202.815)" fill="#262626"/>
<circle cx="3.74665" cy="3.74665" r="3.74665" transform="matrix(-0.866025 0.5 0.5 0.866025 9.13416 196.587)" fill="#262626"/>
<circle cx="2.34166" cy="2.34166" r="2.34166" transform="matrix(-0.866025 0.5 0.5 0.866025 8.61955 198.506)" fill="#FFB8B8"/>
<circle cx="3.74665" cy="3.74665" r="3.74665" transform="matrix(-0.866025 0.5 0.5 0.866025 19.6087 213.793)" fill="#262626"/>
<circle cx="5.15165" cy="5.15165" r="5.15165" transform="matrix(-0.866025 0.5 0.5 0.866025 12.6693 209.583)" fill="#262626"/>
<circle cx="7.10248" cy="7.10248" r="7.10248" transform="matrix(-0.866025 0.5 0.5 0.866025 21.2245 197.663)" fill="#FFB8B8"/>
<circle cx="3.05072" cy="3.05072" r="3.05072" transform="matrix(-0.866025 0.5 0.5 0.866025 7.98631 205.625)" fill="#FFB8B8"/>
<circle cx="3.27987" cy="3.27987" r="3.27987" transform="matrix(-0.866025 0.5 0.5 0.866025 11.9056 212.137)" fill="#FFB8B8"/>
<circle cx="2.34166" cy="2.34166" r="2.34166" transform="matrix(-0.866025 0.5 0.5 0.866025 19.0941 215.712)" fill="#FFB8B8"/>
<path d="M122.741 151.064C154.962 151.064 205.636 180.881 226.945 195.79L215.939 214.055C148.733 225.295 125.785 195.79 125.785 195.79C125.785 195.79 120.633 167.3 122.741 151.064Z" fill="#262626"/>
<circle cx="226.579" cy="207.989" r="12.6449" transform="rotate(30 226.579 207.989)" fill="#262626"/>
<circle cx="237.963" cy="209.852" r="5.15165" transform="rotate(30 237.963 209.852)" fill="#262626"/>
<circle cx="237.237" cy="201.705" r="3.74665" transform="rotate(30 237.237 201.705)" fill="#262626"/>
<circle cx="237.237" cy="201.705" r="2.34166" transform="rotate(30 237.237 201.705)" fill="#FFB8B8"/>
<circle cx="226.762" cy="218.911" r="3.74665" transform="rotate(30 226.762 218.911)" fill="#262626"/>
<circle cx="234.216" cy="216.62" r="5.15165" transform="rotate(30 234.216 216.62)" fill="#262626"/>
<circle cx="226.375" cy="207.365" r="7.10248" transform="rotate(30 226.375 207.365)" fill="#FFB8B8"/>
<circle cx="238.13" cy="209.792" r="3.05072" transform="rotate(30 238.13 209.792)" fill="#FFB8B8"/>
<circle cx="234.295" cy="216.618" r="3.27987" transform="rotate(30 234.295 216.618)" fill="#FFB8B8"/>
<circle cx="226.763" cy="218.911" r="2.34166" transform="rotate(30 226.763 218.911)" fill="#FFB8B8"/>
<path d="M116.504 161.861L113.28 182.687C112.993 184.539 113.701 189.15 117.404 189.724C122.032 190.44 123.103 186.578 123.462 184.264L126.685 163.437C132.99 122.709 110.303 102.223 83.9123 96.8663C59.3305 91.8764 59.2845 73.5178 59.2845 67.8978C59.2845 54.5937 69.1989 45.4309 82.2777 44.1434C95.3565 42.8559 105.026 36.4475 105.026 25.5269C105.026 13.5845 95.0035 6.65507 83.9123 6.65505C59.2845 6.65502 37.0039 23.5736 34.3082 57.1392C31.6125 90.7048 56.0878 108.943 72.2431 112.871C82.976 115.48 121.662 128.538 116.504 161.861Z" fill="#262626"/>
<path fill-rule="evenodd" clip-rule="evenodd" d="M74.2306 216.447L36.5299 241.654L60.1807 240.332L74.3399 230.24L74.2306 216.447Z" fill="#A86400"/>
<path fill-rule="evenodd" clip-rule="evenodd" d="M170.707 216.447L208.283 241.654L185.225 240.098L170.473 230.24L170.707 216.447Z" fill="#A86400"/>
<path fill-rule="evenodd" clip-rule="evenodd" d="M170.671 298.074H74.0106L68.6111 261.833L74.0106 216.396L107.483 219.023H137.456L170.671 216.396L176.093 285.142L170.671 298.074Z" fill="#D47B00"/>
<path fill-rule="evenodd" clip-rule="evenodd" d="M146.526 286.936H150.246V275.798H146.526V286.936Z" fill="#523300"/>
<path fill-rule="evenodd" clip-rule="evenodd" d="M157.688 286.936H161.408V275.798H157.688V286.936Z" fill="#523300"/>
<path fill-rule="evenodd" clip-rule="evenodd" d="M144.665 294.361H163.269V290.648H144.665V294.361Z" fill="#523300"/>
<path fill-rule="evenodd" clip-rule="evenodd" d="M148.5 271.073L145 277.073H152L148.5 271.073Z" fill="#523300"/>
<path fill-rule="evenodd" clip-rule="evenodd" d="M159.5 271.073L156 277.073H163L159.5 271.073Z" fill="#523300"/>
<path fill-rule="evenodd" clip-rule="evenodd" d="M130.886 238.672H113.795C112.351 238.672 111.178 239.918 111.178 241.457C111.178 242.995 112.351 244.241 113.795 244.241H130.886C132.332 244.241 133.503 242.995 133.503 241.457C133.503 239.918 132.332 238.672 130.886 238.672" fill="#262626"/>
<path d="M107.743 183.636V178.667H99V176.303L106.841 164.364H111.104V175.97H113.593V178.667H111.104V183.636H107.743ZM102.547 175.97H107.743V171.606C107.743 171.04 107.754 170.374 107.774 169.606C107.816 168.838 107.857 168.172 107.899 167.606H107.774C107.525 168.111 107.266 168.606 106.997 169.091C106.727 169.576 106.447 170.081 106.156 170.606L102.547 175.97Z" fill="white"/>
<path d="M139.15 183.636V178.667H130.407V176.303L138.248 164.364H142.511V175.97H145V178.667H142.511V183.636H139.15ZM133.954 175.97H139.15V171.606C139.15 171.04 139.161 170.374 139.182 169.606C139.223 168.838 139.264 168.172 139.306 167.606H139.182C138.933 168.111 138.673 168.606 138.404 169.091C138.134 169.576 137.854 170.081 137.564 170.606L133.954 175.97Z" fill="white"/>
<path d="M122.109 184C120.035 184 118.396 183.141 117.193 181.424C115.99 179.687 115.388 177.182 115.388 173.909C115.388 170.636 115.99 168.172 117.193 166.515C118.396 164.838 120.035 164 122.109 164C124.183 164 125.822 164.838 127.025 166.515C128.228 168.192 128.83 170.657 128.83 173.909C128.83 177.182 128.228 179.687 127.025 181.424C125.822 183.141 124.183 184 122.109 184ZM122.109 181.273C122.586 181.273 123.022 181.152 123.416 180.909C123.831 180.646 124.183 180.222 124.474 179.636C124.764 179.051 124.992 178.293 125.158 177.364C125.324 176.434 125.407 175.283 125.407 173.909C125.407 172.556 125.324 171.424 125.158 170.515C124.992 169.586 124.764 168.838 124.474 168.273C124.183 167.707 123.831 167.313 123.416 167.091C123.022 166.848 122.586 166.727 122.109 166.727C121.632 166.727 121.186 166.848 120.771 167.091C120.377 167.313 120.035 167.707 119.744 168.273C119.454 168.838 119.226 169.586 119.06 170.515C118.894 171.424 118.811 172.556 118.811 173.909C118.811 175.283 118.894 176.434 119.06 177.364C119.226 178.293 119.454 179.051 119.744 179.636C120.035 180.222 120.377 180.646 120.771 180.909C121.186 181.152 121.632 181.273 122.109 181.273Z" fill="#FFB8B8"/>
</svg>
