<svg width="163" height="67" viewBox="0 0 163 67" fill="none" xmlns="http://www.w3.org/2000/svg">
<path fill-rule="evenodd" clip-rule="evenodd" d="M45.3528 0.230263L61.8004 14.0013C67.6655 11.7302 74.2965 10.4507 81.3176 10.4507C88.3388 10.4507 94.9698 11.7302 100.835 14.0013L117.278 0.234023C117.871 -0.262644 118.779 0.0895084 118.882 0.856271L123.717 36.8014C124.319 39.0052 124.635 41.2894 124.635 43.6301C124.635 61.9547 105.241 66.8096 81.3176 66.8096C57.394 66.8096 38 61.9547 38 43.6301C38 43.3183 38.0056 43.0075 38.0168 42.6977L38 42.7086L38.0228 42.5423C38.0918 40.9021 38.3162 39.2921 38.6851 37.7204L43.749 0.849796C43.8541 0.0845445 44.7606 -0.265613 45.3528 0.230263Z" fill="#262626"/>
<circle cx="102.841" cy="38.3292" r="9.4453" fill="#FFC166"/>
<circle cx="102.842" cy="38.3291" r="7.77145" fill="#262626"/>
<ellipse cx="97.2289" cy="33.8296" rx="1.67943" ry="1.67943" fill="white"/>
<circle cx="60.4453" cy="38.3291" r="9.4453" fill="#FFC166"/>
<circle cx="60.4455" cy="38.329" r="7.77145" fill="#262626"/>
<ellipse cx="54.8327" cy="33.8295" rx="1.67943" ry="1.67943" fill="white"/>
<path d="M47.8593 37.8695C42.4435 35.2558 29.5449 30.1779 4.68665 30.7753" stroke="#262626" stroke-width="0.999062" stroke-linecap="round"/>
<path d="M114.824 37.8695C120.24 35.2558 133.138 30.1779 157.997 30.7753" stroke="#262626" stroke-width="0.999062" stroke-linecap="round"/>
<path d="M43.395 43.2267C38.9255 43.3861 25.4237 41.7869 9.46741 47.6908" stroke="#262626" stroke-width="0.999062" stroke-linecap="round"/>
<path d="M119.288 43.2267C123.758 43.3861 137.259 41.7869 153.216 47.6908" stroke="#262626" stroke-width="0.999062" stroke-linecap="round"/>
<path d="M41.5527 39.4824C35.1011 38.1 18.5114 36.2567 1 39.4825" stroke="#262626" stroke-width="0.921652" stroke-linecap="round"/>
<path d="M121.13 39.4824C127.582 38.1 144.172 36.2567 161.683 39.4825" stroke="#262626" stroke-width="0.921652" stroke-linecap="round"/>
<path d="M82 42V51" stroke="#404040" stroke-linecap="round"/>
<path d="M81.9052 39.0219C80.3745 39.0219 78.1371 39.3305 76.798 39.9705C76.3245 40.1968 76.3228 40.7959 76.7096 41.1505L81.3772 45.4291C81.7296 45.7521 82.2704 45.7521 82.6228 45.4291L87.2826 41.1577C87.6723 40.8004 87.6668 40.197 87.1879 39.9728C85.8414 39.3426 83.583 39.0219 81.9052 39.0219Z" fill="#F25C5C"/>
<path d="M90 51C90 51 84.8571 51.5 82 51.5C79.1429 51.5 77.1242 51.3905 74 51" stroke="#404040" stroke-linecap="round"/>
</svg>
