<svg width="512" height="512" viewBox="0 0 16 16" fill="none" xmlns="http://www.w3.org/2000/svg">
<rect width="512" height="512" fill="#262626"/>
<ellipse cx="12.5033" cy="8.00463" rx="2.00475" ry="2.00463" fill="#FFC166"/>
<ellipse cx="12.5031" cy="8.00463" rx="1.64948" ry="1.64938" fill="#262626"/>
<ellipse cx="11.312" cy="7.04964" rx="0.356457" ry="0.356434" fill="white"/>
<ellipse cx="3.50475" cy="8.00463" rx="2.00475" ry="2.00463" fill="#FFC166"/>
<ellipse cx="3.50495" cy="8.00463" rx="1.64948" ry="1.64938" fill="#262626"/>
<ellipse cx="2.31361" cy="7.04964" rx="0.356457" ry="0.356434" fill="white"/>
<path d="M8.07983 8.78375V10.6939" stroke="#595959" stroke-width="0.221078" stroke-linecap="round"/>
<path d="M8.05977 8.15158C7.73778 8.15158 7.26847 8.21593 6.98344 8.34929C6.87836 8.39846 6.87777 8.53072 6.96329 8.60911L7.94222 9.5064C8.02012 9.5778 8.13968 9.5778 8.21757 9.5064L9.19476 8.6107C9.28093 8.53171 9.27947 8.3985 9.1732 8.3498C8.88655 8.21842 8.41265 8.15158 8.05977 8.15158Z" fill="#F25C5C"/>
<path d="M9.77771 10.6938C9.77771 10.6938 8.68614 10.8 8.07972 10.8C7.47329 10.8 7.04484 10.7767 6.38173 10.6938" stroke="#595959" stroke-width="0.221078" stroke-linecap="round"/>
</svg>
