<svg width="245" height="299" viewBox="0 0 245 299" fill="none" xmlns="http://www.w3.org/2000/svg">
<path d="M167.687 197.184C167.687 222.274 167.687 264.156 122.259 264.156C76.8311 264.156 76.8311 222.274 76.8311 197.184C76.8311 172.095 97.1699 151.756 122.259 151.756C147.348 151.756 167.687 172.095 167.687 197.184Z" fill="#262626"/>
<path d="M122.259 151.99C90.0379 151.99 39.3645 181.808 18.0554 196.716L29.0612 214.981C96.2667 226.221 119.215 196.716 119.215 196.716C119.215 196.716 124.367 168.226 122.259 151.99Z" fill="#262626"/>
<circle r="12.6449" transform="matrix(-0.866025 0.5 0.5 0.866025 18.4212 208.916)" fill="#262626"/>
<circle r="5.15164" transform="matrix(-0.866025 0.5 0.5 0.866025 7.03734 210.778)" fill="#262626"/>
<circle r="3.74665" transform="matrix(-0.866025 0.5 0.5 0.866025 7.76279 202.631)" fill="#262626"/>
<circle r="2.34166" transform="matrix(-0.866025 0.5 0.5 0.866025 7.76277 202.631)" fill="#FFB8B8"/>
<circle r="3.74665" transform="matrix(-0.866025 0.5 0.5 0.866025 18.2375 219.837)" fill="#262626"/>
<circle r="5.15164" transform="matrix(-0.866025 0.5 0.5 0.866025 10.7838 217.546)" fill="#262626"/>
<circle r="7.10248" transform="matrix(-0.866025 0.5 0.5 0.866025 18.6252 208.292)" fill="#FFB8B8"/>
<circle r="3.05072" transform="matrix(-0.866025 0.5 0.5 0.866025 6.86956 210.718)" fill="#FFB8B8"/>
<circle r="3.27987" transform="matrix(-0.866025 0.5 0.5 0.866025 10.7051 217.544)" fill="#FFB8B8"/>
<circle r="2.34166" transform="matrix(-0.866025 0.5 0.5 0.866025 18.2374 219.837)" fill="#FFB8B8"/>
<path d="M122.741 151.99C154.962 151.99 205.636 181.808 226.945 196.716L215.939 214.981C148.733 226.221 125.785 196.716 125.785 196.716C125.785 196.716 120.634 168.226 122.741 151.99Z" fill="#262626"/>
<circle cx="226.579" cy="208.916" r="12.6449" transform="rotate(30 226.579 208.916)" fill="#262626"/>
<circle cx="237.963" cy="210.778" r="5.15164" transform="rotate(30 237.963 210.778)" fill="#262626"/>
<circle cx="237.237" cy="202.631" r="3.74665" transform="rotate(30 237.237 202.631)" fill="#262626"/>
<circle cx="237.237" cy="202.631" r="2.34166" transform="rotate(30 237.237 202.631)" fill="#FFB8B8"/>
<circle cx="226.763" cy="219.837" r="3.74665" transform="rotate(30 226.763 219.837)" fill="#262626"/>
<circle cx="234.216" cy="217.546" r="5.15164" transform="rotate(30 234.216 217.546)" fill="#262626"/>
<circle cx="226.375" cy="208.292" r="7.10248" transform="rotate(30 226.375 208.292)" fill="#FFB8B8"/>
<circle cx="238.13" cy="210.718" r="3.05072" transform="rotate(30 238.13 210.718)" fill="#FFB8B8"/>
<circle cx="234.295" cy="217.544" r="3.27987" transform="rotate(30 234.295 217.544)" fill="#FFB8B8"/>
<circle cx="226.762" cy="219.837" r="2.34166" transform="rotate(30 226.762 219.837)" fill="#FFB8B8"/>
<path d="M128 162.787L131.224 183.614C131.511 185.465 130.803 190.077 127.1 190.65C122.472 191.366 121.401 187.504 121.042 185.19L117.819 164.363C111.514 123.635 134.201 103.15 160.592 97.7926C185.173 92.8027 185.219 74.4442 185.219 68.8242C185.219 55.5201 175.305 46.3573 162.226 45.0698C149.147 43.7823 139.478 37.3739 139.478 26.4533C139.478 14.5109 149.5 7.58146 160.592 7.58145C185.219 7.58142 207.5 24.5 210.196 58.0656C212.891 91.6311 188.416 109.87 172.261 113.797C161.528 116.406 122.842 129.464 128 162.787Z" fill="#262626"/>
<path fill-rule="evenodd" clip-rule="evenodd" d="M74.2304 217.374L36.5298 242.58L60.1805 241.259L74.3397 231.166L74.2304 217.374Z" fill="#A86400"/>
<path fill-rule="evenodd" clip-rule="evenodd" d="M170.707 217.374L208.282 242.58L185.225 241.024L170.473 231.166L170.707 217.374Z" fill="#A86400"/>
<path fill-rule="evenodd" clip-rule="evenodd" d="M170.671 299H74.0101L68.6106 262.76L74.0101 217.323L107.482 219.95H137.455L170.671 217.323L176.093 286.069L170.671 299Z" fill="#D47B00"/>
<path fill-rule="evenodd" clip-rule="evenodd" d="M146.525 287.862H150.246V276.724H146.525V287.862Z" fill="#523300"/>
<path fill-rule="evenodd" clip-rule="evenodd" d="M157.688 287.862H161.408V276.724H157.688V287.862Z" fill="#523300"/>
<path fill-rule="evenodd" clip-rule="evenodd" d="M144.665 295.287H163.269V291.575H144.665V295.287Z" fill="#523300"/>
<path fill-rule="evenodd" clip-rule="evenodd" d="M148.5 272L145 278H152L148.5 272Z" fill="#523300"/>
<path fill-rule="evenodd" clip-rule="evenodd" d="M159.5 272L156 278H163L159.5 272Z" fill="#523300"/>
<path fill-rule="evenodd" clip-rule="evenodd" d="M130.886 239.598H113.795C112.351 239.598 111.178 240.845 111.178 242.384C111.178 243.921 112.351 245.167 113.795 245.167H130.886C132.332 245.167 133.503 243.921 133.503 242.384C133.503 240.845 132.332 239.598 130.886 239.598" fill="#262626"/>
</svg>
