<svg width="196" height="116" viewBox="0 0 196 116" fill="none" xmlns="http://www.w3.org/2000/svg">
<path d="M71.4074 63.6495C57.9923 62.1695 36.8139 75.8039 27.9015 82.8062C23.9897 85.7245 35.1028 93.9497 39.5734 89.0555C44.044 84.1613 76.244 84.3258 80.1734 81.4824C84.1028 78.639 88.1761 65.4995 71.4074 63.6495Z" fill="#262626"/>
<path fill-rule="evenodd" clip-rule="evenodd" d="M158.392 85.4156C161.483 85.926 165.105 87.4563 168.29 89.9891C173.081 93.7995 175.49 98.7731 175.321 102.188C175.554 103.925 175.107 105.751 173.93 107.231C171.635 110.116 167.436 110.595 164.551 108.3C163.434 107.412 162.678 106.238 162.303 104.965C160.46 105.317 158.479 104.893 156.895 103.633C155.174 102.264 154.309 100.218 154.379 98.1765C153.574 97.9323 152.8 97.5342 152.1 96.9776C149.17 94.6469 148.654 90.4187 150.949 87.5336C152.755 85.2628 155.764 84.5009 158.392 85.4156Z" fill="#262626"/>
<path fill-rule="evenodd" clip-rule="evenodd" d="M78.6502 0.54203L95.0503 14.2733C100.9 12.0082 107.513 10.7321 114.515 10.7321C121.518 10.7321 128.131 12.0083 133.981 14.2734L150.377 0.545767C150.97 0.0490998 151.878 0.401253 151.981 1.16802L156.802 37.0155C157.402 39.2114 157.717 41.4873 157.718 43.8196L157.718 43.8232L157.718 43.8229C157.718 43.823 157.718 43.823 157.718 43.8231C157.718 62.0988 138.375 66.9408 114.515 66.9408C90.6556 66.9408 71.3134 62.0988 71.3134 43.8231C71.3134 43.5121 71.319 43.2022 71.3301 42.8932L71.3134 42.9041L71.3361 42.7382C71.4049 41.1024 71.6287 39.4966 71.9966 37.9291L77.0464 1.16156C77.1515 0.396312 78.058 0.0461542 78.6502 0.54203Z" fill="#262626"/>
<circle cx="135.982" cy="38.5363" r="9.42011" fill="#FFC166"/>
<circle cx="135.982" cy="38.5362" r="7.75073" fill="#262626"/>
<ellipse cx="130.385" cy="34.0486" rx="1.67495" ry="1.67495" fill="white"/>
<circle cx="93.6989" cy="38.5362" r="9.42011" fill="#FFC166"/>
<circle cx="93.6988" cy="38.5361" r="7.75073" fill="#262626"/>
<ellipse cx="88.1013" cy="34.0486" rx="1.67495" ry="1.67495" fill="white"/>
<path d="M81.1466 38.0778C75.7453 35.4712 62.8811 30.4068 38.0891 31.0026" stroke="#262626" stroke-width="0.999062" stroke-linecap="round"/>
<path d="M147.933 38.0778C153.335 35.4712 166.199 30.4068 190.991 31.0026" stroke="#262626" stroke-width="0.999062" stroke-linecap="round"/>
<path d="M76.6947 43.4208C72.2371 43.5798 58.7713 41.9849 42.8575 47.873" stroke="#262626" stroke-width="0.999062" stroke-linecap="round"/>
<path d="M152.385 43.4207C156.843 43.5797 170.309 41.9849 186.222 47.873" stroke="#262626" stroke-width="0.999062" stroke-linecap="round"/>
<path d="M74.8569 39.6864C68.4225 38.3077 51.877 36.4694 34.4124 39.6865" stroke="#262626" stroke-width="0.921652" stroke-linecap="round"/>
<path d="M154.223 39.6864C160.657 38.3077 177.203 36.4694 194.667 39.6865" stroke="#262626" stroke-width="0.921652" stroke-linecap="round"/>
<path d="M115.196 42.1973V51.1733" stroke="#404040" stroke-linecap="round"/>
<path d="M121.18 51.1733L109.212 51.1733" stroke="#404040" stroke-linecap="round"/>
<path d="M115.102 39.2271C113.576 39.2271 111.346 39.5346 110.01 40.1721C109.537 40.3982 109.535 40.9972 109.922 41.3518L114.573 45.6158C114.926 45.9388 115.467 45.9388 115.819 45.6158L120.463 41.359C120.852 41.0017 120.847 40.3984 120.368 40.1745C119.025 39.5466 116.774 39.2271 115.102 39.2271Z" fill="#F25C5C"/>
<rect x="63.6891" y="102.702" width="101.019" height="2.32712" fill="#262626"/>
<path fill-rule="evenodd" clip-rule="evenodd" d="M61.3398 104.866C61.3398 104.314 61.7876 103.866 62.3398 103.866H166.057C166.609 103.866 167.057 104.314 167.057 104.866V106.011C167.057 109.324 164.371 112.011 161.057 112.011H67.3398C64.0261 112.011 61.3398 109.324 61.3398 106.011V104.866Z" fill="#595959"/>
<path fill-rule="evenodd" clip-rule="evenodd" d="M61.3398 45.1974C61.3398 43.5405 62.683 42.1974 64.3398 42.1974H164.057C165.714 42.1974 167.057 43.5405 167.057 45.1974V99.7022C167.057 101.359 165.714 102.702 164.057 102.702H64.3398C62.683 102.702 61.3398 101.359 61.3398 99.7022V45.1974Z" fill="#595959"/>
<path fill-rule="evenodd" clip-rule="evenodd" d="M63.6891 107.356H66.0384V108.482H63.6891V107.356Z" fill="#262626"/>
<path fill-rule="evenodd" clip-rule="evenodd" d="M67.213 107.356H69.5623V108.482H67.213V107.356Z" fill="#262626"/>
<path d="M21.6552 86.3106C26.6534 88.3944 29.0664 91.2986 28.1466 95.5742C29.5265 97.645 30.9549 99.6719 31.8208 96.0707C32.8766 91.6792 31.0782 87.6428 24.7308 84.3142C16.2818 79.8835 8.15227 88.2735 5.17527 87.5501C2.19828 86.8266 2.5789 83.0164 2.1623 83.1878C1.74571 83.3593 1.17576 87.9357 5.64172 89.125C10.2248 90.3455 14.9992 83.5356 21.6552 86.3106Z" fill="#FFB8B8"/>
<path d="M47.0618 92.3701C47.0618 100.255 40.7867 116 33.0459 116C25.3052 116 19.03 100.255 19.03 92.3701C19.03 84.4853 25.3052 78.0934 33.0459 78.0934C40.7867 78.0934 47.0618 84.4853 47.0618 92.3701Z" fill="#CFCFCF"/>
<circle cx="28.5049" cy="107.081" r="1.59271" fill="black"/>
<ellipse cx="27.9487" cy="106.922" rx="0.318543" ry="0.477814" fill="white"/>
<circle cx="37.4244" cy="107.081" r="1.59271" fill="black"/>
<ellipse cx="36.8681" cy="106.922" rx="0.318543" ry="0.477814" fill="white"/>
<path d="M33.0461 113.77L33.0461 115.363" stroke="black" stroke-opacity="0.1" stroke-width="0.319394" stroke-linecap="round"/>
<path d="M33.0153 112.177C32.7273 112.177 32.3606 112.212 32.0208 112.282C31.502 112.39 31.4591 112.948 31.8491 113.307L32.4143 113.827C32.7711 114.155 33.3199 114.155 33.6768 113.827L34.2341 113.314C34.6271 112.953 34.5807 112.391 34.0576 112.284C33.711 112.213 33.3309 112.177 33.0153 112.177Z" fill="#F25C5C"/>
<rect x="27.6307" y="110.585" width="2.86688" height="2.2298" rx="1.1149" fill="#E5E5E5"/>
<rect x="35.2754" y="110.585" width="2.86688" height="2.2298" rx="1.1149" fill="#E5E5E5"/>
<path d="M28.9048 111.859L21.4191 113.611" stroke="#595959" stroke-width="0.159697" stroke-linecap="round"/>
<path d="M36.8681 111.859L44.3539 113.611" stroke="#595959" stroke-width="0.159697" stroke-linecap="round"/>
<path d="M28.1867 111.381L22.2937 110.903" stroke="#595959" stroke-width="0.159697" stroke-linecap="round"/>
<path d="M37.5862 111.381L43.4792 110.903" stroke="#595959" stroke-width="0.159697" stroke-linecap="round"/>
<path d="M28.7456 112.496L24.6829 115.363" stroke="#595959" stroke-width="0.159697" stroke-linecap="round"/>
<path d="M37.0273 112.496L41.0901 115.363" stroke="#595959" stroke-width="0.159697" stroke-linecap="round"/>
<path fill-rule="evenodd" clip-rule="evenodd" d="M47.0533 82.9252C44.6851 80.874 41.193 79.066 37.2097 78.2355C31.2172 76.9861 25.8522 78.3118 23.3339 80.6238C21.8487 81.5548 20.7301 83.0659 20.3441 84.9174C19.5917 88.5262 21.9073 92.0616 25.5161 92.814C26.9133 93.1053 28.2995 92.9368 29.5174 92.4113C30.4253 94.054 32.017 95.3062 33.9985 95.7193C36.1513 96.1682 38.2781 95.5252 39.8034 94.1672C40.5054 94.6299 41.3065 94.9711 42.1819 95.1536C45.8473 95.9178 49.4286 93.6118 50.181 90.003C50.7731 87.1626 49.4364 84.3618 47.0533 82.9252Z" fill="#262626"/>
<circle cx="22.6121" cy="97.6838" r="6.84867" fill="#CFCFCF"/>
<path d="M19.7265 102.301C23.4307 104.24 21.806 101.211 23.4504 98.6394C24.8839 94.9762 27.7493 95.8487 25.521 93.3834C23.1319 91.4722 19.8296 92.1832 18.1851 94.7546C16.5406 97.326 17.2307 100.704 19.7265 102.301Z" fill="#FFB8B8"/>
<circle cx="42.9991" cy="97.6838" r="6.84867" fill="#CFCFCF"/>
<path d="M46.0079 102.301C42.3037 104.24 43.9284 101.211 42.2839 98.6394C40.8505 94.9762 37.9851 95.8487 40.2134 93.3834C42.6025 91.4722 45.9048 92.1832 47.5493 94.7546C49.1937 97.326 48.5036 100.704 46.0079 102.301Z" fill="#FFB8B8"/>
</svg>
