<svg width="163" height="177" viewBox="0 0 163 177" fill="none" xmlns="http://www.w3.org/2000/svg">
<path fill-rule="evenodd" clip-rule="evenodd" d="M45.3528 0.230263L61.8004 14.0013C67.6655 11.7302 74.2965 10.4507 81.3176 10.4507C88.3388 10.4507 94.9698 11.7302 100.835 14.0013L117.278 0.234023C117.871 -0.262644 118.779 0.0895085 118.882 0.856272L123.717 36.8014C124.319 39.0052 124.635 41.2894 124.635 43.6301C124.635 61.9547 105.241 76.8096 81.3176 76.8096C57.394 76.8096 38 61.9547 38 43.6301C38 43.3183 38.0056 43.0075 38.0168 42.6977L38 42.7086L38.0228 42.5423C38.0918 40.9021 38.3162 39.2921 38.6851 37.7204L43.749 0.849796C43.8541 0.0845445 44.7606 -0.265613 45.3528 0.230263Z" fill="#262626"/>
<circle cx="102.841" cy="38.3291" r="9.4453" fill="#FFC166"/>
<circle cx="102.842" cy="38.329" r="7.77145" fill="#262626"/>
<ellipse cx="97.2289" cy="33.8295" rx="1.67943" ry="1.67943" fill="white"/>
<circle cx="60.4453" cy="38.3291" r="9.4453" fill="#FFC166"/>
<circle cx="60.4456" cy="38.329" r="7.77145" fill="#262626"/>
<ellipse cx="54.8327" cy="33.8295" rx="1.67943" ry="1.67943" fill="white"/>
<path d="M81.9052 39.0218C80.3425 39.0218 78.7323 39.2417 77.5297 39.4679C76.8386 39.5979 76.6049 40.4276 77.0966 40.9302L81.2232 45.1485C81.5935 45.527 82.2057 45.5165 82.5627 45.1255L86.4436 40.8749C86.8976 40.3777 86.6773 39.5953 86.0178 39.4597C84.9317 39.2364 83.4488 39.0218 81.9052 39.0218Z" fill="#F25C5C"/>
<path d="M47.8593 37.8695C42.4435 35.2558 29.5449 30.1779 4.68665 30.7753" stroke="#262626" stroke-width="0.999062" stroke-linecap="round"/>
<path d="M114.824 37.8695C120.24 35.2558 133.138 30.1779 157.997 30.7753" stroke="#262626" stroke-width="0.999062" stroke-linecap="round"/>
<path d="M43.395 43.2267C38.9255 43.3861 25.4237 41.787 9.46741 47.6908" stroke="#262626" stroke-width="0.999062" stroke-linecap="round"/>
<path d="M119.288 43.2267C123.758 43.3861 137.259 41.7869 153.216 47.6908" stroke="#262626" stroke-width="0.999062" stroke-linecap="round"/>
<path d="M41.5527 39.4824C35.1011 38.1 18.5114 36.2567 1 39.4825" stroke="#262626" stroke-width="0.921652" stroke-linecap="round"/>
<path d="M121.13 39.4824C127.582 38.1 144.172 36.2567 161.683 39.4825" stroke="#262626" stroke-width="0.921652" stroke-linecap="round"/>
<path d="M73.8209 52.0518L84.7431 52.0518L73.8209 25.6011L62.1222 36.713L73.8209 52.0518Z" fill="#06893A"/>
<path d="M87.5538 52.0522L76.2079 52.0522L89.9499 22.6286L109.511 22.6285L87.5538 52.0522Z" fill="#33AA5F"/>
<rect x="22" y="52" width="117" height="125" fill="#DE2E2E"/>
<rect x="19" y="50" width="123" height="19" fill="#DE2E2E"/>
<rect x="70" y="50" width="21" height="127" fill="#33AA5F"/>
<rect x="22" y="69" width="117" height="4" fill="black" fill-opacity="0.19"/>
<path fill-rule="evenodd" clip-rule="evenodd" d="M39.1095 39.5106C36.0825 38.6706 32.1419 38.5341 28.1767 39.4943C22.2114 40.9388 17.9214 44.4461 16.6342 47.6231C15.6892 49.1049 15.3256 50.9546 15.7719 52.7977C16.6418 56.3901 20.2592 58.5971 23.8517 57.7272C25.2425 57.3904 26.4257 56.6418 27.303 55.6422C28.8317 56.7399 30.8118 57.1899 32.7843 56.7123C34.9274 56.1933 36.5774 54.6966 37.3754 52.8107C38.2102 52.9281 39.0825 52.8927 39.9539 52.6817C43.6026 51.7982 45.8553 48.1697 44.9854 44.5772C44.3007 41.7498 41.8858 39.7874 39.1095 39.5106Z" fill="#262626"/>
<path fill-rule="evenodd" clip-rule="evenodd" d="M121.629 39.5106C124.656 38.6706 128.597 38.5341 132.562 39.4943C138.527 40.9388 142.817 44.4461 144.105 47.6231C145.05 49.1049 145.413 50.9546 144.967 52.7977C144.097 56.3901 140.48 58.5971 136.887 57.7272C135.496 57.3904 134.313 56.6418 133.436 55.6422C131.907 56.7399 129.927 57.1899 127.954 56.7123C125.811 56.1933 124.161 54.6966 123.363 52.8107C122.529 52.9281 121.656 52.8927 120.785 52.6817C117.136 51.7982 114.883 48.1697 115.753 44.5772C116.438 41.7498 118.853 39.7874 121.629 39.5106Z" fill="#262626"/>
</svg>
